<svg xmlns="http://www.w3.org/2000/svg" width="512" height="512"><path d="M144.704 478.474c-25.006-5.021-45.729-21.066-56.693-43.896C80.314 418.55 80.5 420.5 80.5 355.824c0-56.692.035-57.723 2.062-60.438 3.897-5.221 7.121-6.886 13.34-6.886 4.707 0 6.396.49 9.285 2.694 7 5.339 6.813 3.619 6.813 62.497 0 44.367.248 53.84 1.538 58.794 4.25 16.317 17.707 29.568 34.593 34.062 7.995 2.128 207.743 2.128 215.738 0 15.441-4.11 26.757-14.208 33.399-29.806 2.2-5.165 2.24-6.067 2.732-61.92.488-55.283.55-56.745 2.562-59.437 3.9-5.22 7.123-6.884 13.34-6.884 4.707 0 6.396.49 9.285 2.694 7.186 5.48 6.962 3.208 6.552 66.569-.409 63.315-.179 61.036-7.752 76.815-7.848 16.35-21.14 29.63-37.41 37.378-16.8 8-8.1 7.478-128.077 7.692-86.993.155-108.27-.065-113.796-1.174zM41.45 270.594c-6.68-2.91-10.407-10.508-8.999-18.344.6-3.341 12.413-15.489 108.362-111.437C236.76 44.863 248.909 33.052 252.25 32.45c9.55-1.716 1.78-8.795 118.937 108.362C488.312 257.937 481.302 250.245 479.528 259.7c-.923 4.922-6.905 10.904-11.827 11.827-9.432 1.77-2.457 8.08-111.453-100.838L255.995 70.509l-99.747 99.7C99.897 226.533 55.275 270.364 53.685 270.955c-3.767 1.398-8.516 1.258-12.235-.362z" style="fill:#fff;fill-opacity:1"/></svg>